<?xml version="1.0" standalone="no"?>
<!DOCTYPE svg PUBLIC "-//W3C//DTD SVG 20010904//EN"
 "http://www.w3.org/TR/2001/REC-SVG-20010904/DTD/svg10.dtd">
<svg version="1.0" xmlns="http://www.w3.org/2000/svg"
 width="128.000000pt" height="128.000000pt" viewBox="0 0 128.000000 128.000000"
 preserveAspectRatio="xMidYMid meet">
<metadata>
Created by potrace 1.16, written by Peter Selinger 2001-2019
</metadata>
<rect width="1280" height="1280" fill="#0C0C0C" transform="scale(0.1)"/>
<g transform="translate(0.000000,128.000000) scale(0.100000,-0.100000)"
fill="#E6E6E6" stroke="none">
<path d="M0 1065 c0 -130 4 -224 10 -236 7 -12 7 -19 1 -19 -6 0 -10 -64 -10
-165 0 -117 3 -165 12 -165 8 0 8 -3 -1 -12 -9 -9 -12 -76 -12 -240 l0 -229
235 1 c174 1 235 4 235 13 0 9 2 9 8 0 11 -17 313 -17 324 0 6 9 8 9 8 0 0 -9
61 -12 235 -13 l235 -1 0 221 c0 134 -4 229 -10 241 -7 12 -7 19 -1 19 6 0 10
66 10 170 0 105 -4 170 -10 170 -6 0 -6 7 1 19 6 12 10 104 10 230 l0 211
-402 -1 c-292 -1 -405 -4 -410 -12 -6 -9 -8 -9 -8 0 0 9 -60 12 -230 13 l-230
1 0 -216z m390 190 c0 -6 -76 -45 -87 -45 -4 1 12 12 37 25 50 27 50 27 50 20z
m210 -35 c24 -8 24 -8 -7 -9 -17 -1 -35 4 -38 9 -7 11 9 11 45 0z m120 1 c0
-5 -12 -11 -27 -13 -20 -2 -27 -8 -25 -20 2 -12 -2 -16 -12 -12 -12 5 -13 11
-6 24 9 16 19 21 63 29 4 0 7 -3 7 -8z m237 -13 c-3 -8 -6 -5 -6 6 -1 11 2 17
5 13 3 -3 4 -12 1 -19z m-427 -4 c0 -2 -7 -4 -15 -4 -8 0 -15 4 -15 10 0 5 7
7 15 4 8 -4 15 -8 15 -10z m250 6 c0 -5 -4 -10 -10 -10 -5 0 -10 5 -10 10 0 6
5 10 10 10 6 0 10 -4 10 -10z m-493 -22 c-3 -8 -6 -5 -6 6 -1 11 2 17 5 13 3
-3 4 -12 1 -19z m523 12 c0 -5 -5 -10 -11 -10 -5 0 -7 5 -4 10 3 6 8 10 11 10
2 0 4 -4 4 -10z m34 -16 c3 -8 2 -12 -4 -9 -6 3 -10 10 -10 16 0 14 7 11 14
-7z m-584 -10 c0 -8 -5 -12 -10 -9 -6 4 -8 11 -5 16 9 14 15 11 15 -7z m282 5
c-21 -6 -39 -6 -50 0 -13 8 -5 10 33 10 48 -1 49 -1 17 -10z m339 -3 c5 3 9 0
9 -6 0 -16 -23 -7 -27 11 -2 9 -1 10 3 1 3 -6 10 -10 15 -6z m-720 -19 c-10
-9 -11 -8 -5 6 3 10 9 15 12 12 3 -3 0 -11 -7 -18z m269 19 c0 -2 -7 -7 -16
-10 -8 -3 -12 -2 -9 4 6 10 25 14 25 6z m375 -45 c-4 -23 -11 -39 -16 -35 -5
3 -9 1 -9 -4 0 -6 -9 -8 -20 -5 -12 3 -20 0 -20 -6 0 -7 -5 -9 -10 -6 -16 10
-1 25 23 25 24 0 52 34 42 50 -4 6 -3 15 0 21 13 19 17 1 10 -40z m122 7 c-3
-8 -6 -5 -6 6 -1 11 2 17 5 13 3 -3 4 -12 1 -19z m-577 -2 c0 -3 -4 -8 -10
-11 -5 -3 -10 -1 -10 4 0 6 5 11 10 11 6 0 10 -2 10 -4z m380 -12 c0 -2 -7 -4
-15 -4 -8 0 -15 4 -15 10 0 5 7 7 15 4 8 -4 15 -8 15 -10z m-147 -1 c-7 -2
-21 -2 -30 0 -10 3 -4 5 12 5 17 0 24 -2 18 -5z m74 1 c-3 -3 -12 -4 -19 -1
-8 3 -5 6 6 6 11 1 17 -2 13 -5z m327 -9 c3 -8 1 -15 -4 -15 -6 0 -10 7 -10
15 0 8 2 15 4 15 2 0 6 -7 10 -15z m-427 -30 c0 -10 -11 -15 -34 -15 -30 0
-33 -3 -28 -20 3 -11 2 -20 -4 -20 -13 0 -24 37 -16 50 4 7 19 8 36 5 18 -4
29 -3 29 4 0 6 4 11 8 11 5 0 9 -7 9 -15z m130 0 c0 -8 -6 -15 -12 -15 -6 0
-12 7 -12 15 0 8 6 15 12 15 6 0 12 -7 12 -15z m107 -38 c-3 -8 -17 -13 -32
-11 -40 3 -41 6 -2 14 19 4 36 8 37 9 1 0 0 -5 -3 -12z m-434 -7 c0 -5 -4 -10
-10 -10 -5 0 -10 5 -10 10 0 6 5 10 10 10 6 0 10 -4 10 -10z m194 -5 c-4 -8
-15 -15 -25 -15 -12 0 -16 5 -13 15 4 8 15 15 25 15 12 0 16 -5 13 -15z m136
11 c0 -2 -6 -9 -13 -15 -10 -8 -14 -7 -14 4 0 8 6 15 14 15 7 0 13 -2 13 -4z
m294 -13 c4 -9 2 -21 -4 -27 -8 -8 -9 -6 -5 7 4 10 2 17 -4 17 -6 0 -11 5 -11
10 0 16 17 11 24 -7z m-680 -18 c3 -8 1 -15 -4 -15 -6 0 -10 7 -10 15 0 8 2
15 4 15 2 0 6 -7 10 -15z m901 -5 c3 -5 -1 -10 -10 -10 -9 0 -13 5 -10 10 3 6
8 10 10 10 2 0 7 -4 10 -10z m-989 -37 c-11 -11 -17 4 -9 23 7 18 8 18 11 1 2
-10 1 -21 -2 -24z m537 20 c-7 -2 -21 -2 -30 0 -10 3 -4 5 12 5 17 0 24 -2 18
-5z m-666 -9 c-3 -3 -12 -4 -19 -1 -8 3 -5 6 6 6 11 1 17 -2 13 -5z m988 -4
c3 -5 1 -10 -4 -10 -6 0 -11 5 -11 10 0 6 2 10 4 10 3 0 8 -4 11 -10z m155
-25 c0 -5 -5 -3 -10 5 -5 8 -10 20 -10 25 0 6 5 3 10 -5 5 -8 10 -19 10 -25z
m-85 -14 c-6 -5 -25 10 -25 20 0 5 6 4 14 -3 8 -7 12 -15 11 -17z m-862 -1 c3
-11 1 -20 -4 -20 -5 0 -9 9 -9 20 0 11 2 20 4 20 2 0 6 -9 9 -20z m-39 -40 c5
-17 4 -20 -2 -10 -5 8 -13 26 -16 40 -5 17 -4 20 2 10 5 -8 13 -26 16 -40z
m106 35 c0 -8 -2 -15 -4 -15 -2 0 -6 7 -10 15 -3 8 -1 15 4 15 6 0 10 -7 10
-15z m699 -23 c-6 -17 -17 -33 -25 -36 -9 -3 -12 -1 -9 4 3 6 1 10 -5 10 -6 0
-8 5 -4 11 4 8 9 7 15 -2 6 -10 11 -5 20 19 6 18 13 31 15 29 2 -2 -1 -18 -7
-35z m-370 1 c0 -25 -1 -25 -8 -8 -5 11 -7 23 -4 28 8 14 13 7 12 -20z m-635
2 c3 -8 1 -15 -4 -15 -6 0 -10 7 -10 15 0 8 2 15 4 15 2 0 6 -7 10 -15z m1106
5 c0 -5 -2 -10 -4 -10 -3 0 -8 5 -11 10 -3 6 -1 10 4 10 6 0 11 -4 11 -10z
m-520 -10 c0 -5 -2 -10 -4 -10 -3 0 -8 5 -11 10 -3 6 -1 10 4 10 6 0 11 -4 11
-10z m-355 -10 c3 -5 1 -10 -4 -10 -6 0 -11 5 -11 10 0 6 2 10 4 10 3 0 8 -4
11 -10z m65 -5 c0 -8 -2 -15 -4 -15 -2 0 -6 7 -10 15 -3 8 -1 15 4 15 6 0 10
-7 10 -15z m614 0 c-4 -8 -8 -15 -10 -15 -2 0 -4 7 -4 15 0 8 4 15 10 15 5 0
7 -7 4 -15z m-774 -20 c0 -12 -19 -12 -23 0 -4 9 -1 12 9 8 7 -3 14 -7 14 -8z
m945 5 c-3 -5 -12 -10 -18 -10 -7 0 -6 4 3 10 19 12 23 12 15 0z m-1008 -6
c-3 -3 -12 -4 -19 -1 -8 3 -5 6 6 6 11 1 17 -2 13 -5z m659 -3 c-3 -5 -16 -11
-28 -14 -22 -6 -22 -5 -4 8 22 17 40 20 32 6z m411 3 c-3 -3 -12 -4 -19 -1 -8
3 -5 6 6 6 11 1 17 -2 13 -5z m-637 -8 c0 -2 -7 -7 -16 -10 -8 -3 -12 -2 -9 4
6 10 25 14 25 6z m-233 -36 c-6 -17 -14 -25 -18 -18 -4 6 1 19 9 29 22 25 22
24 9 -11z m493 10 c0 -11 -2 -20 -4 -20 -2 0 -6 9 -9 20 -3 11 -1 20 4 20 5 0
9 -9 9 -20z m172 -29 c-5 -13 -6 -13 -10 0 -3 7 -9 23 -15 34 l-10 20 20 -20
c11 -11 18 -27 15 -34z m223 11 c-3 -3 -11 0 -18 7 -9 10 -8 11 6 5 10 -3 15
-9 12 -12z m-797 -24 c1 -23 -2 -28 -8 -18 -12 19 -13 50 -2 50 5 0 9 -14 10
-32z m482 15 c0 -10 -5 -25 -10 -33 -7 -11 -10 -7 -10 18 0 17 5 32 10 32 6 0
10 -8 10 -17z m-807 -18 c-3 -9 -8 -14 -10 -11 -3 3 -2 9 2 15 9 16 15 13 8
-4z m127 0 c0 -12 -19 -12 -23 0 -4 9 -1 12 9 8 7 -3 14 -7 14 -8z m571 -12
c-12 -20 -14 -14 -5 12 4 9 9 14 11 11 3 -2 0 -13 -6 -23z m314 17 c-3 -5 -12
-10 -18 -10 -7 0 -6 4 3 10 19 12 23 12 15 0z m125 -5 c0 -12 -19 -12 -23 0
-4 9 -1 12 9 8 7 -3 14 -7 14 -8z m-876 -10 c3 -8 1 -15 -4 -15 -6 0 -10 7
-10 15 0 8 2 15 4 15 2 0 6 -7 10 -15z m606 0 c0 -8 -4 -15 -10 -15 -5 0 -7 7
-4 15 4 8 8 15 10 15 2 0 4 -7 4 -15z m-655 -15 c3 -5 1 -10 -4 -10 -6 0 -11
5 -11 10 0 6 2 10 4 10 3 0 8 -4 11 -10z m705 0 c0 -5 -4 -10 -10 -10 -5 0
-10 5 -10 10 0 6 5 10 10 10 6 0 10 -4 10 -10z m-930 -15 c0 -8 -2 -15 -4 -15
-2 0 -6 7 -10 15 -3 8 -1 15 4 15 6 0 10 -7 10 -15z m144 0 c-4 -8 -8 -15 -10
-15 -2 0 -4 7 -4 15 0 8 4 15 10 15 5 0 7 -7 4 -15z m866 0 c0 -8 -2 -15 -4
-15 -2 0 -6 7 -10 15 -3 8 -1 15 4 15 6 0 10 -7 10 -15z m150 11 c0 -3 -4 -8
-10 -11 -5 -3 -10 -1 -10 4 0 6 5 11 10 11 6 0 10 -2 10 -4z m-899 -25 c-7 -5
-11 -13 -7 -19 3 -5 -1 -13 -10 -16 -8 -3 -12 -2 -9 4 3 6 2 10 -4 10 -20 0 0
26 22 27 15 2 18 0 8 -6z m644 -17 c0 -13 -5 -20 -12 -17 -7 3 -10 10 -7 15 4
6 0 14 -7 19 -10 6 -9 8 6 7 13 -1 20 -9 20 -24z m-915 -19 c0 -8 -2 -15 -4
-15 -2 0 -6 7 -10 15 -3 8 -1 15 4 15 6 0 10 -7 10 -15z m725 4 c10 -16 -3
-56 -20 -63 -19 -7 -19 8 0 28 18 18 19 33 3 39 -10 4 -10 6 -1 6 6 1 15 -4
18 -10z m448 -9 c-3 -11 -7 -20 -9 -20 -2 0 -4 9 -4 20 0 11 4 20 9 20 5 0 7
-9 4 -20z m-853 -20 c0 -5 -4 -10 -10 -10 -5 0 -10 5 -10 10 0 6 5 10 10 10 6
0 10 -4 10 -10z m80 -5 c0 -8 -4 -15 -10 -15 -5 0 -7 7 -4 15 4 8 8 15 10 15
2 0 4 -7 4 -15z m245 5 c3 -6 -1 -7 -9 -4 -18 7 -21 14 -7 14 6 0 13 -4 16
-10z m133 -75 c-2 -30 -7 -55 -12 -55 -4 0 -6 -6 -3 -14 4 -11 -1 -13 -21 -10
-15 3 -29 8 -32 11 -3 3 5 3 18 0 27 -6 37 21 36 101 -1 36 2 49 8 38 5 -9 8
-41 6 -71z m82 75 c0 -5 -4 -10 -10 -10 -5 0 -10 5 -10 10 0 6 5 10 10 10 6 0
10 -4 10 -10z m-360 -26 c0 -8 -4 -14 -10 -14 -5 0 -10 2 -10 4 0 2 -3 12 -6
20 -5 12 -2 15 10 10 9 -3 16 -12 16 -20z m-150 -15 c0 -27 -34 -21 -37 6 -3
20 -3 20 6 0 7 -14 10 -16 11 -5 2 8 2 19 1 23 -1 5 3 6 9 2 5 -3 10 -15 10
-26z m491 6 c9 20 9 20 6 0 -3 -26 -37 -33 -37 -7 0 29 14 37 19 10 3 -22 4
-22 12 -3z m-851 -25 c0 -11 -4 -20 -10 -20 -5 0 -10 9 -10 20 0 11 5 20 10
20 6 0 10 -9 10 -20z m407 -22 c3 -50 4 -51 45 -50 28 1 30 -1 15 -10 -13 -7
-27 -6 -45 1 -23 10 -27 18 -30 56 -1 25 1 45 5 45 4 0 9 -19 10 -42z m-180 6
c-3 -3 -12 -4 -19 -1 -8 3 -5 6 6 6 11 1 17 -2 13 -5z m750 0 c-3 -3 -12 -4
-19 -1 -8 3 -5 6 6 6 11 1 17 -2 13 -5z m-472 -42 c-3 -3 -11 0 -18 7 -9 10
-8 11 6 5 10 -3 15 -9 12 -12z m439 1 c-16 -17 -16 -18 -1 -21 9 -2 17 -8 17
-13 0 -6 -7 -6 -17 -1 -10 5 -25 7 -33 4 -13 -5 -13 -3 0 14 18 23 32 34 43
34 5 0 1 -8 -9 -17z m-670 -19 c4 -10 2 -14 -6 -11 -7 2 -20 0 -30 -4 -11 -6
-18 -4 -21 5 -4 10 0 12 14 9 10 -3 19 0 19 6 0 17 17 13 24 -5z m-154 -5 c0
-5 -5 -7 -11 -3 -6 3 -15 0 -20 -7 -4 -7 -11 -10 -16 -6 -8 9 15 27 35 27 6 0
12 -5 12 -11z m80 1 c0 -5 -5 -10 -11 -10 -5 0 -7 5 -4 10 3 6 8 10 11 10 2 0
4 -4 4 -10z m815 0 c8 -13 -5 -13 -25 0 -13 8 -13 10 2 10 9 0 20 -4 23 -10z
m66 0 c12 -7 19 -21 18 -38 l0 -27 -16 33 c-13 25 -21 31 -36 26 -13 -4 -17
-2 -13 5 9 14 22 14 47 1z m-1071 -10 c0 -5 -5 -10 -11 -10 -5 0 -7 5 -4 10 3
6 8 10 11 10 2 0 4 -4 4 -10z m1175 0 c3 -5 1 -10 -4 -10 -6 0 -11 5 -11 10 0
6 2 10 4 10 3 0 8 -4 11 -10z m-882 -25 c-7 -21 -12 -19 -10 4 0 11 5 18 9 15
4 -3 5 -11 1 -19z m252 15 c-3 -5 -10 -10 -16 -10 -5 0 -9 5 -9 10 0 6 7 10
16 10 8 0 12 -4 9 -10z m135 0 c0 -5 -2 -10 -4 -10 -3 0 -8 5 -11 10 -3 6 -1
10 4 10 6 0 11 -4 11 -10z m-670 -35 c0 -8 -4 -15 -10 -15 -5 0 -7 7 -4 15 4
8 8 15 10 15 2 0 4 -7 4 -15z m449 -6 c-14 -8 -29 -3 -29 11 0 4 9 6 21 3 15
-4 17 -8 8 -14z m283 -8 c11 -11 11 -13 -1 -6 -7 4 -52 7 -98 7 -57 0 -81 3
-72 9 21 15 156 6 171 -10z m99 -4 c-10 -9 -11 -8 -5 6 3 10 9 15 12 12 3 -3
0 -11 -7 -18z m-808 -48 c11 -28 12 -36 2 -36 -7 0 -11 6 -8 14 3 7 0 13 -6
13 -6 0 -8 7 -5 15 4 8 1 15 -6 15 -6 0 -8 5 -5 11 9 13 10 12 28 -32z m1121
25 c3 -8 2 -12 -4 -9 -6 3 -10 10 -10 16 0 14 7 11 14 -7z m-84 2 c0 -11 -19
-15 -25 -6 -3 5 1 10 9 10 9 0 16 -2 16 -4z m-520 -16 c0 -5 -4 -10 -10 -10
-5 0 -10 5 -10 10 0 6 5 10 10 10 6 0 10 -4 10 -10z m85 0 c-3 -5 -18 -10 -33
-10 -21 0 -24 2 -12 10 20 13 53 13 45 0z m-521 -15 c-4 -8 -8 -15 -10 -15 -2
0 -4 7 -4 15 0 8 4 15 10 15 5 0 7 -7 4 -15z m1091 5 c-3 -5 -12 -10 -18 -10
-7 0 -6 4 3 10 19 12 23 12 15 0z m-1231 -15 c-4 -8 -1 -15 6 -15 6 0 9 -4 6
-9 -4 -5 -1 -11 6 -13 9 -3 9 -6 0 -12 -13 -8 -36 39 -26 55 9 14 14 10 8 -6z
m149 -20 c-3 -9 -8 -14 -10 -11 -3 3 -2 9 2 15 9 16 15 13 8 -4z m921 0 c-4
-8 -11 -12 -16 -9 -6 4 -5 10 3 15 19 12 19 11 13 -6z m141 -15 c-9 -16 -21
-30 -28 -30 -8 0 -7 4 3 10 8 5 12 10 8 10 -7 0 23 40 29 40 2 0 -3 -13 -12
-30z m-1128 -6 c-3 -3 -12 -4 -19 -1 -8 3 -5 6 6 6 11 1 17 -2 13 -5z m1056
-9 c-3 -9 -8 -14 -10 -11 -3 3 -2 9 2 15 9 16 15 13 8 -4z m-970 -25 c9 -11
13 -20 7 -20 -5 0 -14 9 -20 20 -6 11 -9 20 -8 20 2 0 11 -9 21 -20z m452 -1
c-22 -4 -51 -8 -65 -8 -20 -1 -22 1 -10 9 8 5 38 9 65 9 l50 -1 -40 -9z m145
1 c0 -5 -13 -10 -30 -10 -16 0 -30 5 -30 10 0 6 14 10 30 10 17 0 30 -4 30
-10z m83 1 c4 -1 2 -7 -5 -14 -10 -11 -15 -12 -25 -1 -18 17 -16 23 5 19 9 -2
21 -4 25 -4z m-803 -5 c0 -3 -4 -8 -10 -11 -5 -3 -10 -1 -10 4 0 6 5 11 10 11
6 0 10 -2 10 -4z m360 -10 c0 -3 -4 -8 -10 -11 -5 -3 -10 -1 -10 4 0 6 5 11
10 11 6 0 10 -2 10 -4z m628 -21 c-6 -14 -13 -23 -15 -21 -5 5 15 46 22 46 3
0 -1 -11 -7 -25z m-913 5 c3 -5 -1 -10 -10 -10 -9 0 -13 5 -10 10 3 6 8 10 10
10 2 0 7 -4 10 -10z m465 0 c-18 -12 -150 -13 -150 -2 0 5 37 9 83 10 56 1 77
-2 67 -8z m200 -2 c0 -11 -142 -10 -160 2 -10 7 13 9 73 8 48 -1 87 -5 87 -10z
m-710 -28 c13 -8 13 -10 -2 -10 -9 0 -20 5 -23 10 -8 13 5 13 25 0z m1090 6
c0 -3 -4 -8 -10 -11 -5 -3 -10 -1 -10 4 0 6 5 11 10 11 6 0 10 -2 10 -4z m-90
-16 c0 -5 -5 -10 -11 -10 -5 0 -7 5 -4 10 3 6 8 10 11 10 2 0 4 -4 4 -10z
m-850 -4 c0 -3 -4 -8 -10 -11 -5 -3 -10 -1 -10 4 0 6 5 11 10 11 6 0 10 -2 10
-4z m754 -31 c-4 -8 -10 -12 -15 -9 -5 3 -13 -6 -19 -20 -10 -27 -20 -34 -20
-16 0 11 45 60 54 60 3 0 3 -7 0 -15z m156 11 c0 -3 -4 -8 -10 -11 -5 -3 -10
-1 -10 4 0 6 5 11 10 11 6 0 10 -2 10 -4z m-1005 -26 c10 -11 16 -20 13 -20
-3 0 -13 9 -23 20 -10 11 -16 20 -13 20 3 0 13 -9 23 -20z m935 17 c0 -2 -17
-19 -37 -38 l-38 -34 34 38 c33 34 41 42 41 34z m-874 -39 l29 -33 -32 29
c-18 17 -33 31 -33 33 0 8 8 1 36 -29z m714 -18 c13 -9 13 -10 0 -10 -8 0 -22
5 -30 10 -13 9 -13 10 0 10 8 0 22 -5 30 -10z m74 -5 c-4 -8 -11 -15 -16 -15
-6 0 -5 6 2 15 7 8 14 15 16 15 2 0 1 -7 -2 -15z m-724 -30 c0 -5 -5 -3 -10 5
-5 8 -10 20 -10 25 0 6 5 3 10 -5 5 -8 10 -19 10 -25z m-62 0 c-3 -3 -9 2 -12
12 -6 14 -5 15 5 6 7 -7 10 -15 7 -18z m677 15 c3 -5 1 -10 -4 -10 -6 0 -11 5
-11 10 0 6 2 10 4 10 3 0 8 -4 11 -10z m-580 -20 c3 -5 1 -10 -4 -10 -6 0 -11
5 -11 10 0 6 2 10 4 10 3 0 8 -4 11 -10z m-51 -25 c3 -8 1 -15 -4 -15 -6 0
-10 7 -10 15 0 8 2 15 4 15 2 0 6 -7 10 -15z m73 -7 c-3 -8 -6 -5 -6 6 -1 11
2 17 5 13 3 -3 4 -12 1 -19z m38 12 c-3 -5 -11 -10 -16 -10 -6 0 -7 5 -4 10 3
6 11 10 16 10 6 0 7 -4 4 -10z m605 -34 c0 -3 -4 -8 -10 -11 -5 -3 -10 -1 -10
4 0 6 5 11 10 11 6 0 10 -2 10 -4z m-590 -54 c0 -1 -9 2 -20 8 -11 6 -20 15
-20 20 0 6 9 2 20 -7 11 -10 20 -19 20 -21z m520 13 c0 -1 -9 -5 -19 -8 -13
-3 -18 -1 -14 9 4 10 33 10 33 -1z"/>
</g>
</svg>
